<svg width="122.88" height="100.54" xmlns="http://www.w3.org/2000/svg">

 <g>
  <title>background</title>
  <rect fill="#80f2f2" id="canvas_background" height="102.54" width="124.88" y="-1" x="-1"/>
 </g>
 <g>
  <title>Layer 1</title>
  <g stroke="null" id="svg_1">
   <path stroke="null" id="svg_2" d="m59.728697,46.132075l-2.577396,0c-0.042578,0 -0.076641,0.018826 -0.105026,0.047066c-0.028385,0.031377 -0.042578,0.072168 -0.042578,0.116096l0,6.005639c0,0.047066 0.017031,0.084719 0.042578,0.116096c0.028385,0.031377 0.065286,0.047066 0.105026,0.047066l2.574557,0c0.042578,0 0.076641,-0.018826 0.105026,-0.047066c0.028385,-0.031377 0.042578,-0.072168 0.042578,-0.116096l0,-6.005639c0,-0.047066 -0.017031,-0.084719 -0.042578,-0.116096c-0.025547,-0.034515 -0.062448,-0.047066 -0.102187,-0.047066l0,0l0,0zm-16.747395,-12.748648l8.938567,0l0,-2.833381c0,-0.429871 0.158958,-0.815813 0.411589,-1.095072c0.255469,-0.279259 0.607448,-0.454973 0.990651,-0.454973l10.235781,0c0.38888,0 0.735182,0.175714 0.990651,0.454973c0.25263,0.279259 0.411589,0.671477 0.411589,1.095072l0,2.833381l8.938567,0c0.547839,0 1.041745,0.247882 1.396562,0.646375c0.360495,0.398493 0.58474,0.94446 0.58474,1.543769l0,5.290234c-2.239609,1.697519 -4.550182,3.144018 -6.931718,4.323809c-2.395729,1.186067 -4.86526,2.105425 -7.419947,2.739249l0,-2.114838c0,-0.483212 -0.178828,-0.928772 -0.465521,-1.248822c-0.286693,-0.316912 -0.689766,-0.51459 -1.12974,-0.51459l-2.988984,0l0,0c-0.437135,0 -0.840208,0.197678 -1.12974,0.51459c-0.286693,0.316912 -0.465521,0.762471 -0.465521,1.248822l0,2.067772c-2.486562,-0.630686 -4.896484,-1.534356 -7.232604,-2.692183c-2.446823,-1.211169 -4.817005,-2.707872 -7.116223,-4.465008l0,-5.149035c0,-0.605584 0.224245,-1.151551 0.58474,-1.543769c0.357656,-0.398493 0.854401,-0.646375 1.396562,-0.646375l0,0l0,0zm32.898696,10.618121l0,14.35831c0,0.605584 -0.224245,1.151551 -0.58474,1.543769c-0.360495,0.398493 -0.854401,0.646375 -1.396562,0.646375l-30.917394,0c-0.547839,0 -1.041745,-0.247882 -1.396562,-0.646375c-0.360495,-0.398493 -0.58474,-0.94446 -0.58474,-1.543769l0,-14.490095c1.955755,1.386882 3.968281,2.598051 6.037578,3.624093c2.671068,1.324127 5.441484,2.337618 8.314088,3.015371l0,2.274863c0,0.483212 0.178828,0.928772 0.465521,1.248822c0.286693,0.316912 0.692604,0.51459 1.12974,0.51459l2.988984,0c0.437135,0 0.840208,-0.197678 1.12974,-0.51459c0.286693,-0.316912 0.465521,-0.762471 0.465521,-1.248822l0,-2.384684l0.031224,0.144336c2.926536,-0.68089 5.748046,-1.703794 8.467369,-3.053023c2.00401,-0.991527 3.954088,-2.158767 5.850234,-3.48917l0,0zm-13.3894,-12.889846l-8.09552,0c-0.048255,0 -0.087995,0.018826 -0.124896,0.059617c-0.028385,0.031377 -0.053932,0.084719 -0.053932,0.138061l0,2.014431l8.444661,0l0,-2.014431c0,-0.053342 -0.017031,-0.09727 -0.053932,-0.138061c-0.028385,-0.031377 -0.076641,-0.059617 -0.124896,-0.059617l0.008516,0l0,0z"/>
  </g>
 </g>
</svg>