<svg width="122.88" height="103.78" xmlns="http://www.w3.org/2000/svg">
 <defs>
  <style>.cls-1{fill-rule:evenodd;}</style>
 </defs>
 <title>paint-brush</title>
 <g>
  <title>background</title>
  <rect fill="#80f2f2" id="canvas_background" height="105.78" width="124.88" y="-1" x="-1"/>
 </g>
 <g>
  <title>Layer 1</title>
  <path stroke="null" id="svg_1" d="m41.992677,61.779999c3.131947,-2.404728 8.153771,0.177915 10.12663,-4.017446a4.459679,4.78076 0 0 0 0.165966,-3.83666a2.917797,3.127868 0 0 0 -0.84857,-1.248278a3.180131,3.409089 0 0 0 -0.564821,-0.387397c-2.577834,-1.371671 -5.265419,0.548094 -6.692195,2.869604c-1.31167,2.132116 -1.873815,4.795108 -2.189686,6.620176l0.002677,0zm14.479234,-17.320929a14.538125,15.584819 0 0 1 4.015317,5.182505l13.435251,-14.106973c0.84857,-0.860881 1.338439,-1.586891 0.615682,-2.906909a1.739971,1.865243 0 0 0 -1.116258,-0.628443a1.897907,2.034549 0 0 0 -1.234041,0.459137l-15.715952,12.000684zm-4.51054,6.313129c0.75488,0.43618 1.790831,1.506542 2.037104,2.674471l5.61609,-3.081955c-1.01186,-2.163681 -2.304792,-4.017446 -4.076885,-5.331724c-1.847046,2.660123 -1.472283,3.205348 -3.576309,5.739208z" class="cls-1"/>
 </g>
</svg>