<svg width="122.88" height="101.57" xmlns="http://www.w3.org/2000/svg">

 <g>
  <title>background</title>
  <rect fill="#80f2f2" id="canvas_background" height="103.57" width="124.88" y="-1" x="-1"/>
 </g>
 <g>
  <title>Layer 1</title>
  <g stroke="null" id="svg_1">
   <path stroke="null" id="svg_2" d="m55.569121,38.85177l-4.042448,0l-6.526673,8.118748l6.526673,8.118748l4.042448,0l-6.526673,-8.118748l6.526673,-8.118748l0,0zm7.741757,0l4.042448,0l6.526673,8.118748l-6.526673,8.118748l-4.042448,0l6.526673,-8.118748l-6.526673,-8.118748l0,0zm-1.819101,-2.844785l1.400755,0.308926c0.220924,0.048895 0.35724,0.257809 0.307884,0.466722l-5.288085,21.489236c-0.051706,0.206691 -0.27263,0.337818 -0.493555,0.291146l-1.398405,-0.308926c-0.220924,-0.048895 -0.35724,-0.257809 -0.307884,-0.466722l5.288085,-21.489236c0.051706,-0.206691 0.27263,-0.337818 0.491204,-0.291146l0,0l0,0z"/>
  </g>
 </g>
</svg>