<svg width="122.88" height="101.9" xmlns="http://www.w3.org/2000/svg">
 <defs>
  <style>.cls-1{fill-rule:evenodd;}</style>
 </defs>
 <title>gaming-monitor</title>
 <g>
  <title>background</title>
  <rect x="-1" y="-1" width="124.88" height="103.9" id="canvas_background" fill="#80f2f2"/>
 </g>
 <g>
  <title>Layer 1</title>
  <path class="cls-1" d="m34.138331,43.495572l39.603341,0a1.141749,1.032432 0 0 1 1.13834,1.02935l0,23.730529a1.141749,1.032432 0 0 1 -1.13834,1.02935l-39.603341,0a1.141749,1.032432 0 0 1 -1.13834,-1.035514l0,-23.730529a1.141749,1.032432 0 0 1 1.13834,-1.023186zm27.14976,7.566032l0.047715,0a0.432842,0.3914 0 0 1 0.34082,0.141767c1.949493,1.815231 2.975363,5.760046 2.747013,8.398142a5.770091,5.217634 0 0 1 -0.483965,1.849132a1.837022,1.661137 0 0 1 -1.288301,1.026268c-0.732764,0.123275 -1.646163,-0.22806 -2.747013,-1.232755l-0.456699,-0.403727a12.480846,11.28587 0 0 1 -1.509835,-1.51937l-7.995649,0a12.327477,11.147185 0 0 1 -1.513243,1.522452l-0.432842,0.3914c-1.10085,1.013941 -2.014249,1.365276 -2.747013,1.232755a1.837022,1.661137 0 0 1 -1.301934,-1.013941a5.793948,5.239208 0 0 1 -0.483965,-1.849132c-0.22835,-2.650423 0.807745,-6.619893 2.774279,-8.425879a0.426026,0.385236 0 0 1 0.30333,-0.11403l0.047715,0c1.213321,-1.507043 3.943293,-1.525534 5.149798,0l1.363282,0c-0.102246,-2.308333 0.60666,-2.89081 1.656388,-2.955529a5.364515,4.85089 0 0 1 1.203096,0.101702c0.794112,0.120194 1.673429,0.249633 2.29713,-0.308189a0.429434,0.388318 0 1 1 0.593028,0.523921c-0.933848,0.844437 -2.044923,0.678015 -3.043527,0.530085a4.474973,4.046517 0 0 0 -1.022461,-0.092457c-0.565762,0.033901 -0.940665,0.462283 -0.852051,2.185058l2.2017,0c1.206505,-1.513206 3.939885,-1.51937 5.146389,0l0.006816,0.012328l-0.000001,-0.000001zm-11.155055,2.440854l0,1.032432l1.13834,0c1.29171,0 1.29171,1.762839 0,1.762839l-1.13834,0l0,1.02935c0,1.168035 -1.952901,1.168035 -1.952901,0l0,-1.02935l-1.13834,0c-1.288301,0 -1.288301,-1.762839 0,-1.762839l1.13834,0l0,-1.032432c0,-1.164953 1.952901,-1.164953 1.952901,0zm8.912456,-0.896829a0.899766,0.813618 0 1 1 -1.274669,0a0.899766,0.813618 0 0 1 1.274669,0zm0,3.547252a0.899766,0.813618 0 1 1 -1.274669,0a0.903174,0.8167 0 0 1 1.274669,0zm2.157394,-1.849132a0.899766,0.813618 0 1 1 -1.27126,0a0.899766,0.813618 0 0 1 1.27126,0zm-4.318196,0a0.899766,0.813618 0 1 1 -1.274669,0a0.899766,0.813618 0 0 1 1.274669,0zm-8.10812,16.395638l10.326861,0c0.027266,1.614909 0.763438,3.063395 2.757238,4.200612l-15.841337,0c1.59504,-1.04476 2.764054,-2.314497 2.757238,-4.200612zm-5.18388,-42.129393l28.792515,0a1.022461,0.924566 0 0 1 1.022461,0.924566l0,34.957842a1.022461,0.924566 0 0 1 -1.022461,0.924566l-36.887002,0a1.022461,0.924566 0 0 1 -1.00542,-0.924566l0,-18.577614a1.022461,0.924566 0 0 1 1.022461,-0.909157l8.077446,-16.395638l0,0.000001z" id="svg_1" stroke="null"/>
 </g>
</svg>