<?xml version="1.0" encoding="UTF-8"?>
<svg xmlns="http://www.w3.org/2000/svg" xmlns:xlink="http://www.w3.org/1999/xlink" width="40px" height="40px" viewBox="0 0 40 40" version="1.1">
<g id="surface1">
<path style=" stroke:none;fill-rule:nonzero;fill:rgb(0%,0%,0%);fill-opacity:1;" d="M 36.738281 32.464844 L 36.738281 29.210938 C 37.480469 29.015625 38.035156 28.347656 38.035156 27.542969 L 38.035156 22.113281 C 38.035156 21.15625 37.257812 20.378906 36.300781 20.378906 C 35.347656 20.378906 34.570312 21.15625 34.570312 22.113281 L 34.570312 27.542969 C 34.570312 28.347656 35.121094 29.015625 35.863281 29.210938 L 35.863281 32.464844 L 33.238281 32.464844 L 33.238281 11.371094 L 27.488281 11.371094 L 27.488281 6.660156 L 12.511719 6.660156 L 12.511719 11.371094 L 6.761719 11.371094 L 6.761719 32.464844 L 4.136719 32.464844 L 4.136719 29.210938 C 4.878906 29.019531 5.429688 28.347656 5.429688 27.542969 L 5.429688 22.113281 C 5.429688 21.15625 4.652344 20.378906 3.699219 20.378906 C 2.742188 20.378906 1.964844 21.15625 1.964844 22.113281 L 1.964844 27.542969 C 1.964844 28.347656 2.519531 29.015625 3.261719 29.210938 L 3.261719 32.464844 L 0.308594 32.464844 L 0.308594 33.339844 L 39.691406 33.339844 L 39.691406 32.464844 Z M 10.511719 29.570312 L 9.636719 29.570312 L 9.636719 13.996094 L 10.511719 13.996094 Z M 17.15625 29.957031 L 15.84375 29.957031 L 15.84375 29.183594 L 17.15625 29.183594 Z M 17.15625 27.769531 L 15.84375 27.769531 L 15.84375 26.996094 L 17.15625 26.996094 Z M 17.15625 25.582031 L 15.84375 25.582031 L 15.84375 24.808594 L 17.15625 24.808594 Z M 17.15625 23.390625 L 15.84375 23.390625 L 15.84375 22.621094 L 17.15625 22.621094 Z M 17.15625 21.203125 L 15.84375 21.203125 L 15.84375 20.433594 L 17.15625 20.433594 Z M 17.15625 19.015625 L 15.84375 19.015625 L 15.84375 18.246094 L 17.15625 18.246094 Z M 17.15625 16.828125 L 15.84375 16.828125 L 15.84375 16.054688 L 17.15625 16.054688 Z M 17.15625 14.640625 L 15.84375 14.640625 L 15.84375 13.867188 L 17.15625 13.867188 Z M 17.15625 12.449219 L 15.84375 12.449219 L 15.84375 11.679688 L 17.15625 11.679688 Z M 17.15625 10.261719 L 15.84375 10.261719 L 15.84375 9.492188 L 17.15625 9.492188 Z M 20.65625 29.957031 L 19.34375 29.957031 L 19.34375 29.183594 L 20.65625 29.183594 Z M 20.65625 27.769531 L 19.34375 27.769531 L 19.34375 26.996094 L 20.65625 26.996094 Z M 20.65625 25.582031 L 19.34375 25.582031 L 19.34375 24.808594 L 20.65625 24.808594 Z M 20.65625 23.390625 L 19.34375 23.390625 L 19.34375 22.621094 L 20.65625 22.621094 Z M 20.65625 21.203125 L 19.34375 21.203125 L 19.34375 20.433594 L 20.65625 20.433594 Z M 20.65625 19.015625 L 19.34375 19.015625 L 19.34375 18.246094 L 20.65625 18.246094 Z M 20.65625 16.828125 L 19.34375 16.828125 L 19.34375 16.054688 L 20.65625 16.054688 Z M 20.65625 14.640625 L 19.34375 14.640625 L 19.34375 13.867188 L 20.65625 13.867188 Z M 20.65625 12.449219 L 19.34375 12.449219 L 19.34375 11.679688 L 20.65625 11.679688 Z M 20.65625 10.261719 L 19.34375 10.261719 L 19.34375 9.492188 L 20.65625 9.492188 Z M 24.15625 29.957031 L 22.84375 29.957031 L 22.84375 29.183594 L 24.15625 29.183594 Z M 24.15625 27.769531 L 22.84375 27.769531 L 22.84375 26.996094 L 24.15625 26.996094 Z M 24.15625 25.582031 L 22.84375 25.582031 L 22.84375 24.808594 L 24.15625 24.808594 Z M 24.15625 23.390625 L 22.84375 23.390625 L 22.84375 22.621094 L 24.15625 22.621094 Z M 24.15625 21.203125 L 22.84375 21.203125 L 22.84375 20.433594 L 24.15625 20.433594 Z M 24.15625 19.015625 L 22.84375 19.015625 L 22.84375 18.246094 L 24.15625 18.246094 Z M 24.15625 16.828125 L 22.84375 16.828125 L 22.84375 16.054688 L 24.15625 16.054688 Z M 24.15625 14.640625 L 22.84375 14.640625 L 22.84375 13.867188 L 24.15625 13.867188 Z M 24.15625 12.449219 L 22.84375 12.449219 L 22.84375 11.679688 L 24.15625 11.679688 Z M 24.15625 10.261719 L 22.84375 10.261719 L 22.84375 9.492188 L 24.15625 9.492188 Z M 30.363281 29.570312 L 29.488281 29.570312 L 29.488281 13.996094 L 30.363281 13.996094 Z M 30.363281 29.570312 "/>
</g>
</svg>
