<svg width="122.88" height="95.8" xmlns="http://www.w3.org/2000/svg">

 <g>
  <title>background</title>
  <rect fill="#80f2f2" id="canvas_background" height="97.8" width="124.88" y="-1" x="-1"/>
 </g>
 <g>
  <title>Layer 1</title>
  <g stroke="null" id="svg_1">
   <path stroke="null" id="svg_2" d="m45.841172,30l6.536953,0l9.311835,0l9.1125,0l6.236367,0c1.056797,0 2.018672,0.397456 2.714765,1.032805c0.696094,0.63825 1.126406,1.520196 1.126406,2.489176l0,2.068511l0,16.609015l0,2.056907c0,0.96898 -0.433477,1.850926 -1.126406,2.489176c-0.696094,0.63825 -1.657969,1.032805 -2.714765,1.032805l-6.075,0c-0.050625,0.008703 -0.104414,0.011605 -0.161367,0.011605c-0.053789,0 -0.107578,-0.002901 -0.161367,-0.011605l-8.789765,0c-0.050625,0.008703 -0.104414,0.011605 -0.161367,0.011605c-0.053789,0 -0.107578,-0.002901 -0.161367,-0.011605l-8.989101,0c-0.050625,0.008703 -0.104414,0.011605 -0.161367,0.011605c-0.053789,0 -0.107578,-0.002901 -0.161367,-0.011605l-6.375586,0c-1.056797,0 -2.018672,-0.397456 -2.714765,-1.032805s-1.126406,-1.520196 -1.126406,-2.489176l0,-2.056907l0,-16.609015l0,-2.068511c0,-0.96898 0.433477,-1.850926 1.126406,-2.489176c0.696094,-0.635349 1.657969,-1.032805 2.714765,-1.032805l0,0zm13.621288,9.063155l6.49582,4.15443c0.10125,0.058023 0.193008,0.139255 0.265781,0.234992c0.291094,0.385851 0.183516,0.910957 -0.234141,1.177862l-6.470507,4.102209c-0.158203,0.118947 -0.363867,0.191475 -0.585352,0.191475c-0.512578,0 -0.92707,-0.380049 -0.92707,-0.850033l0,-8.317563l0.003164,0c0,-0.168266 0.053789,-0.336532 0.164531,-0.48449c0.294258,-0.38295 0.870117,-0.475787 1.287773,-0.208882l0,0zm12.263906,13.986386l0,3.031689l5.309297,0c0.547383,0 1.044141,-0.205981 1.404844,-0.536711c0.360703,-0.33073 0.585352,-0.786208 0.585352,-1.288105l0,-1.206873l-7.299492,0l0,0zm-1.850976,3.031689l0,-3.031689l-7.258359,0l0,3.031689l7.258359,0l0,0zm-9.109335,0l0,-3.031689l-7.460859,0l0,3.031689l7.460859,0l0,0zm-9.315,0l0,-3.031689l-7.600078,0l0,1.206873c0,0.501897 0.224648,0.957376 0.585352,1.288105c0.360703,0.33073 0.857461,0.536711 1.404844,0.536711l5.609883,0l0,0zm-7.600078,-4.728855l8.527148,0l9.311835,0l9.1125,0l8.226562,0l0,-14.911849l-8.226562,0l-9.1125,0l-9.311835,0l-8.527148,0l0,14.911849l0,0zm26.024413,-16.609015l0,-3.046195l-7.258359,0l0,3.043294l7.258359,0l0,0.002901zm1.850976,-3.046195l0,3.043294l7.299492,0l0,-1.218478c0,-0.501897 -0.224648,-0.957376 -0.585352,-1.288105c-0.360703,-0.33073 -0.857461,-0.536711 -1.404844,-0.536711l-5.309297,0l0,0zm-10.960312,3.046195l0,-3.046195l-7.460859,0l0,3.043294l7.460859,0l0,0.002901zm-9.315,0l0,-3.046195l-5.609883,0c-0.547383,0 -1.044141,0.205981 -1.404844,0.536711c-0.360703,0.33073 -0.585352,0.786208 -0.585352,1.288105l0,1.218478l7.600078,0l0,0.002901z"/>
  </g>
 </g>
</svg>