<?xml version="1.0" encoding="UTF-8"?>
<svg xmlns="http://www.w3.org/2000/svg" xmlns:xlink="http://www.w3.org/1999/xlink" width="40px" height="40px" viewBox="0 0 40 40" version="1.1">
<g id="surface1">
<path style=" stroke:none;fill-rule:nonzero;fill:rgb(0%,0%,0%);fill-opacity:1;" d="M 30.222656 21.105469 C 29.859375 21.105469 29.566406 20.808594 29.566406 20.445312 L 29.566406 1.621094 L 9.9375 1.621094 L 9.9375 19.976562 C 9.9375 20.339844 9.644531 20.632812 9.28125 20.632812 C 8.917969 20.632812 8.625 20.339844 8.625 19.976562 L 8.625 0.964844 C 8.625 0.601562 8.917969 0.308594 9.28125 0.308594 L 30.222656 0.308594 C 30.582031 0.308594 30.878906 0.601562 30.878906 0.964844 L 30.878906 20.445312 C 30.878906 20.808594 30.585938 21.105469 30.222656 21.105469 Z M 30.222656 21.105469 "/>
<path style=" stroke:none;fill-rule:nonzero;fill:rgb(0%,0%,0%);fill-opacity:1;" d="M 38.25 13.472656 C 38.25 13.398438 38.234375 13.332031 38.210938 13.265625 C 38.203125 13.246094 38.195312 13.230469 38.1875 13.210938 C 38.164062 13.148438 38.125 13.089844 38.082031 13.039062 C 38.074219 13.035156 38.074219 13.027344 38.070312 13.019531 C 38.066406 13.019531 38.0625 13.015625 38.0625 13.015625 C 38.019531 12.972656 37.972656 12.933594 37.917969 12.902344 L 30.550781 8.644531 C 30.234375 8.464844 29.832031 8.570312 29.652344 8.886719 C 29.472656 9.199219 29.578125 9.601562 29.894531 9.78125 L 36.5 13.597656 L 22.8125 26.554688 L 20.40625 24.660156 C 20.167969 24.472656 19.832031 24.472656 19.59375 24.660156 L 17.1875 26.554688 L 3.496094 13.597656 L 9.609375 10.070312 C 9.921875 9.886719 10.03125 9.488281 9.851562 9.171875 C 9.667969 8.859375 9.265625 8.75 8.953125 8.933594 L 2.078125 12.902344 C 2.027344 12.933594 1.980469 12.972656 1.9375 13.015625 C 1.933594 13.019531 1.933594 13.019531 1.929688 13.019531 C 1.925781 13.023438 1.925781 13.03125 1.921875 13.039062 C 1.875 13.089844 1.835938 13.148438 1.808594 13.214844 C 1.800781 13.230469 1.792969 13.246094 1.789062 13.261719 C 1.765625 13.332031 1.75 13.398438 1.75 13.472656 L 1.75 39.035156 C 1.75 39.042969 1.753906 39.050781 1.753906 39.058594 C 1.753906 39.082031 1.757812 39.105469 1.761719 39.128906 C 1.765625 39.148438 1.765625 39.167969 1.769531 39.1875 C 1.777344 39.210938 1.78125 39.230469 1.789062 39.25 C 1.796875 39.269531 1.804688 39.292969 1.8125 39.3125 C 1.820312 39.328125 1.832031 39.347656 1.84375 39.363281 C 1.855469 39.382812 1.867188 39.402344 1.878906 39.421875 C 1.882812 39.429688 1.886719 39.4375 1.890625 39.441406 C 1.898438 39.453125 1.910156 39.460938 1.917969 39.46875 C 1.933594 39.488281 1.949219 39.503906 1.964844 39.519531 C 1.980469 39.53125 1.996094 39.546875 2.011719 39.558594 C 2.03125 39.570312 2.050781 39.585938 2.066406 39.597656 C 2.085938 39.605469 2.101562 39.613281 2.121094 39.625 C 2.140625 39.632812 2.160156 39.644531 2.183594 39.652344 C 2.203125 39.65625 2.21875 39.664062 2.238281 39.667969 C 2.261719 39.675781 2.28125 39.679688 2.304688 39.683594 C 2.324219 39.6875 2.347656 39.6875 2.367188 39.691406 C 2.382812 39.691406 2.394531 39.691406 2.40625 39.691406 L 37.59375 39.691406 C 37.640625 39.691406 37.6875 39.6875 37.730469 39.679688 C 37.742188 39.675781 37.753906 39.671875 37.765625 39.667969 C 37.796875 39.660156 37.832031 39.648438 37.863281 39.632812 C 37.875 39.628906 37.890625 39.617188 37.90625 39.609375 C 37.929688 39.597656 37.957031 39.582031 37.980469 39.5625 C 37.996094 39.554688 38.007812 39.542969 38.023438 39.527344 C 38.042969 39.507812 38.066406 39.488281 38.085938 39.46875 C 38.09375 39.460938 38.101562 39.453125 38.109375 39.445312 C 38.113281 39.4375 38.117188 39.429688 38.121094 39.421875 C 38.132812 39.40625 38.144531 39.386719 38.15625 39.367188 C 38.167969 39.347656 38.179688 39.328125 38.1875 39.308594 C 38.195312 39.292969 38.203125 39.273438 38.207031 39.253906 C 38.214844 39.234375 38.222656 39.210938 38.230469 39.1875 C 38.234375 39.171875 38.234375 39.152344 38.238281 39.132812 C 38.242188 39.109375 38.246094 39.082031 38.246094 39.058594 C 38.246094 39.050781 38.25 39.046875 38.25 39.039062 Z M 36.9375 14.996094 L 36.9375 37.683594 L 23.855469 27.378906 Z M 20 26.011719 L 35.699219 38.378906 L 4.300781 38.378906 Z M 3.0625 37.683594 L 3.0625 14.996094 L 16.144531 27.378906 Z M 3.0625 37.683594 "/>
<path style=" stroke:none;fill-rule:nonzero;fill:rgb(0%,0%,0%);fill-opacity:1;" d="M 20 6.214844 C 15.933594 6.214844 12.621094 9.523438 12.621094 13.589844 C 12.621094 17.660156 15.933594 20.96875 20 20.96875 C 20.363281 20.96875 20.65625 20.675781 20.65625 20.3125 C 20.65625 19.949219 20.363281 19.65625 20 19.65625 C 16.65625 19.65625 13.933594 16.933594 13.933594 13.589844 C 13.933594 10.246094 16.65625 7.527344 20 7.527344 C 23.34375 7.527344 26.066406 10.246094 26.066406 13.589844 C 26.066406 14.679688 25.898438 16.515625 24.835938 16.582031 C 24.507812 16.582031 23.515625 16.582031 23.515625 14.472656 L 23.515625 12.699219 C 23.515625 12.335938 23.21875 12.042969 22.859375 12.042969 C 22.496094 12.042969 22.203125 12.335938 22.203125 12.699219 L 22.203125 14.472656 C 22.203125 15.199219 21.613281 15.789062 20.886719 15.789062 L 19.113281 15.789062 C 18.386719 15.789062 17.796875 15.199219 17.796875 14.472656 L 17.796875 12.699219 C 17.796875 11.976562 18.386719 11.386719 19.113281 11.386719 L 20.886719 11.386719 C 21.25 11.386719 21.542969 11.089844 21.542969 10.730469 C 21.542969 10.367188 21.25 10.074219 20.886719 10.074219 L 19.113281 10.074219 C 17.664062 10.074219 16.484375 11.25 16.484375 12.699219 L 16.484375 14.472656 C 16.484375 15.921875 17.664062 17.101562 19.113281 17.101562 L 20.886719 17.101562 C 21.535156 17.101562 22.128906 16.863281 22.589844 16.472656 C 23.203125 17.753906 24.390625 17.894531 24.871094 17.894531 C 24.875 17.894531 24.875 17.894531 24.875 17.894531 C 25.8125 17.835938 27.378906 17.199219 27.378906 13.589844 C 27.378906 9.523438 24.066406 6.214844 20 6.214844 Z M 20 6.214844 "/>
</g>
</svg>
