<?xml version="1.0" encoding="UTF-8"?>
<svg xmlns="http://www.w3.org/2000/svg" xmlns:xlink="http://www.w3.org/1999/xlink" width="40px" height="40px" viewBox="0 0 40 40" version="1.1">
<g id="surface1">
<path style=" stroke:none;fill-rule:nonzero;fill:rgb(0%,0%,0%);fill-opacity:1;" d="M 28.785156 0.207031 L 11.214844 0.207031 C 9.738281 0.207031 8.535156 1.410156 8.535156 2.886719 L 8.535156 37.113281 C 8.535156 38.589844 9.738281 39.792969 11.214844 39.792969 L 28.785156 39.792969 C 30.261719 39.792969 31.464844 38.589844 31.464844 37.113281 L 31.464844 2.886719 C 31.464844 1.410156 30.261719 0.207031 28.785156 0.207031 Z M 9.414062 5.667969 L 30.585938 5.667969 L 30.585938 33.675781 L 9.414062 33.675781 Z M 11.214844 1.085938 L 28.785156 1.085938 C 29.777344 1.085938 30.585938 1.894531 30.585938 2.886719 L 30.585938 4.789062 L 9.414062 4.789062 L 9.414062 2.886719 C 9.414062 1.894531 10.222656 1.085938 11.214844 1.085938 Z M 28.785156 38.914062 L 11.214844 38.914062 C 10.222656 38.914062 9.414062 38.105469 9.414062 37.113281 L 9.414062 34.554688 L 30.585938 34.554688 L 30.585938 37.113281 C 30.585938 38.105469 29.777344 38.914062 28.785156 38.914062 Z M 28.785156 38.914062 "/>
<path style=" stroke:none;fill-rule:nonzero;fill:rgb(0%,0%,0%);fill-opacity:1;" d="M 20.878906 36.734375 C 20.878906 37.21875 20.484375 37.613281 20 37.613281 C 19.515625 37.613281 19.121094 37.21875 19.121094 36.734375 C 19.121094 36.246094 19.515625 35.851562 20 35.851562 C 20.484375 35.851562 20.878906 36.246094 20.878906 36.734375 Z M 20.878906 36.734375 "/>
<path style=" stroke:none;fill-rule:nonzero;fill:rgb(0%,0%,0%);fill-opacity:1;" d="M 20.953125 3.398438 L 16.089844 3.398438 C 15.847656 3.398438 15.652344 3.199219 15.652344 2.957031 C 15.652344 2.714844 15.847656 2.515625 16.089844 2.515625 L 20.953125 2.515625 C 21.199219 2.515625 21.394531 2.714844 21.394531 2.957031 C 21.394531 3.199219 21.199219 3.398438 20.953125 3.398438 Z M 20.953125 3.398438 "/>
<path style=" stroke:none;fill-rule:nonzero;fill:rgb(0%,0%,0%);fill-opacity:1;" d="M 23.691406 2.953125 C 23.691406 3.320312 23.394531 3.613281 23.03125 3.613281 C 22.667969 3.613281 22.371094 3.320312 22.371094 2.953125 C 22.371094 2.589844 22.667969 2.296875 23.03125 2.296875 C 23.394531 2.296875 23.691406 2.589844 23.691406 2.953125 Z M 23.691406 2.953125 "/>
</g>
</svg>
