<svg width="122.88" height="122.88" xmlns="http://www.w3.org/2000/svg">
 <style type="text/css">.st0{fill-rule:evenodd;clip-rule:evenodd;}</style>

 <g>
  <title>background</title>
  <rect fill="#80f2f2" id="canvas_background" height="124.88" width="124.88" y="-1" x="-1"/>
 </g>
 <g>
  <title>Layer 1</title>
  <g stroke="null" id="svg_1">
   <path stroke="null" id="svg_2" d="m45.899964,42l17.770073,0c1.34826,0 2.584808,0.350245 3.466956,0.907232c0.893704,0.564284 1.433008,1.335309 1.433008,2.189031l0,23.697475c0,0.85129 -0.554713,1.632044 -1.433008,2.189031c-0.893704,0.564284 -2.114843,0.907232 -3.466956,0.907232l-17.770073,0c-1.34826,0 -2.584808,-0.350245 -3.466956,-0.907232c-0.893704,-0.564284 -1.433008,-1.335309 -1.433008,-2.189031l0,-23.697475c0,-0.85129 0.554713,-1.632044 1.43686,-2.189031c0.893704,-0.566716 2.114843,-0.907232 3.463103,-0.907232l0,0zm11.62971,18.382995l0.065487,0c0.49693,0 0.909113,0.260251 0.909113,0.574013l0,3.684869l0.589382,0l0,-1.544483c0,-0.291871 0.381365,-0.532664 0.843626,-0.532664l0.065487,0c0.49693,0 0.909113,0.260251 0.909113,0.574013l0,1.542051l0.030817,-0.007297l0.635609,0l0,-1.172348c0,-0.291871 0.381365,-0.532664 0.843626,-0.532664l0.061635,0c0.49693,0 0.909113,0.260251 0.909113,0.574013l0,1.072625l0.003852,0l0.631756,-0.004865l0,-0.758864c0,-0.291871 0.381365,-0.532664 0.843626,-0.532664l0.065487,0c0.49693,0 0.909113,0.260251 0.909113,0.574013l0,1.607722c0,0.017026 0,0.038916 -0.007704,0.058374l0.030817,0.014594c0.026965,0.462129 0.015409,1.014251 -0.119417,1.546915l1.425304,0l0,-20.321503l-24.78488,0l0,20.316638l13.659805,0l-2.981582,-2.981946c-0.184904,-0.274845 -0.161791,-0.459696 0.023113,-0.581309c0.7974,-0.328355 2.107139,0.369703 3.551703,1.354767l0.05393,-0.007297l0,-3.991333c0,-0.291871 0.381365,-0.532664 0.843626,-0.532664l-0.011557,0.007297l0,0zm0.547009,-1.539618c0,0.158097 -0.204165,0.282142 -0.446852,0.282142c-0.250391,0 -0.446852,-0.12891 -0.446852,-0.282142l0,-1.135864c0,-0.158097 0.204165,-0.282142 0.446852,-0.282142c0.250391,0 0.446852,0.12891 0.446852,0.282142l0,1.135864l0,0l0,0zm-4.06019,2.327669c0.250391,0 0.446852,0.12891 0.446852,0.282142c0,0.158097 -0.204165,0.282142 -0.446852,0.282142l-1.798965,0c-0.250391,0 -0.446852,-0.12891 -0.446852,-0.282142c0,-0.158097 0.204165,-0.282142 0.446852,-0.282142l1.798965,0l0,0zm1.275069,-1.683121c0.173348,0.109452 0.173348,0.289439 0,0.39889c-0.173348,0.109452 -0.458409,0.109452 -0.631756,0l-1.267365,-0.802645c-0.173348,-0.109452 -0.173348,-0.289439 0,-0.39889c0.173348,-0.109452 0.458409,-0.109452 0.631756,0l1.267365,0.802645l0,0zm5.863007,2.244973c-0.250391,0 -0.446852,-0.12891 -0.446852,-0.282142c0,-0.158097 0.204165,-0.282142 0.446852,-0.282142l1.798965,0c0.250391,0 0.446852,0.12891 0.446852,0.282142c0,0.158097 -0.204165,0.282142 -0.446852,0.282142l-1.798965,0l0,0zm-0.639461,-1.909321c-0.173348,0.109452 -0.458409,0.109452 -0.631756,0c-0.173348,-0.109452 -0.173348,-0.289439 0,-0.39889l1.267365,-0.802645c0.173348,-0.109452 0.458409,-0.109452 0.631756,0c0.173348,0.109452 0.173348,0.289439 0,0.39889l-1.267365,0.802645l0,0zm-15.000361,-1.889863l2.746599,0c0.689539,0 1.251956,0.355109 1.251956,0.790483l0,1.734199c0,0.435374 -0.562417,0.790483 -1.251956,0.790483l-2.746599,0c-0.689539,0 -1.251956,-0.355109 -1.251956,-0.790483l0,-1.734199c-0.003852,-0.432942 0.562417,-0.790483 1.251956,-0.790483l0,0zm15.797761,-4.959371l2.746599,0c0.689539,0 1.251956,0.355109 1.251956,0.790483l0,1.734199c0,0.435374 -0.562417,0.790483 -1.251956,0.790483l-2.746599,0c-0.689539,0 -1.251956,-0.355109 -1.251956,-0.790483l0,-1.734199c0,-0.435374 0.566269,-0.790483 1.251956,-0.790483l0,0zm-7.900806,0l2.746599,0c0.689539,0 1.251956,0.355109 1.251956,0.790483l0,1.734199c0,0.435374 -0.562417,0.790483 -1.251956,0.790483l-2.746599,0c-0.689539,0 -1.251956,-0.355109 -1.251956,-0.790483l0,-1.734199c0,-0.435374 0.566269,-0.790483 1.251956,-0.790483l0,0zm-7.896954,0l2.746599,0c0.689539,0 1.251956,0.355109 1.251956,0.790483l0,1.734199c0,0.435374 -0.562417,0.790483 -1.251956,0.790483l-2.746599,0c-0.689539,0 -1.251956,-0.355109 -1.251956,-0.790483l0,-1.734199c-0.003852,-0.435374 0.562417,-0.790483 1.251956,-0.790483l0,0zm15.797761,-4.959371l2.746599,0c0.689539,0 1.251956,0.355109 1.251956,0.790483l0,1.734199c0,0.435374 -0.562417,0.790483 -1.251956,0.790483l-2.746599,0c-0.689539,0 -1.251956,-0.355109 -1.251956,-0.790483l0,-1.734199c0,-0.435374 0.566269,-0.790483 1.251956,-0.790483l0,0zm-7.900806,0l2.746599,0c0.689539,0 1.251956,0.355109 1.251956,0.790483l0,1.734199c0,0.435374 -0.562417,0.790483 -1.251956,0.790483l-2.746599,0c-0.689539,0 -1.251956,-0.355109 -1.251956,-0.790483l0,-1.734199c0,-0.435374 0.566269,-0.790483 1.251956,-0.790483l0,0zm-7.896954,0l2.746599,0c0.689539,0 1.251956,0.355109 1.251956,0.790483l0,1.734199c0,0.435374 -0.562417,0.790483 -1.251956,0.790483l-2.746599,0c-0.689539,0 -1.251956,-0.355109 -1.251956,-0.790483l0,-1.734199c-0.003852,-0.435374 0.562417,-0.790483 1.251956,-0.790483l0,0zm9.264476,20.068548c1.109426,0 2.018539,0.564284 2.018539,1.274502c0,0.70049 -0.893704,1.274502 -2.018539,1.274502c-1.109426,0 -2.018539,-0.564284 -2.018539,-1.274502c0.003852,-0.70049 0.897556,-1.274502 2.018539,-1.274502l0,0z" class="st0"/>
  </g>
 </g>
</svg>